# xmcd
#
# Track frame offsets: 
#        150
#        15391
#        34636
#        51931
#        76801
#
# Disc length: 1386 seconds
#
# Revision: 0
# Processed by: cddbd v1.5.2PL0 Copyright (c) Steve Scherf et al.
# Submitted via: ExactAudioCopyFreeDBPlugin 1.0
#
DISCID=2c056805
DTITLE=The low flying Ducks - Ducktapes
DYEAR=2014
DGENRE=Folk
TTITLE0=Why don't you come on home?
TTITLE1=Bluejay
TTITLE2=Fever
TTITLE3=Changes coming
TTITLE4=Going home
EXTD=
EXTT0=
EXTT1=
EXTT2=
EXTT3=
EXTT4=
PLAYORDER=
